<?xml version="1.0" encoding="UTF-8"?>
<svg id="Layer_2" data-name="Layer 2" xmlns="http://www.w3.org/2000/svg" viewBox="0 0 186.37 215.61">
  <defs>
    <style>
      .cls-1 {
        fill: #39b54a;
        stroke-width: 0px;
      }
    </style>
  </defs>
  <g id="Layer_1-2" data-name="Layer 1">
    <path class="cls-1" d="m35.97,33.03L93.19,0l57.22,33.03-21.04,12.2-36.18-20.82-36.18,20.82-21.04-12.2Zm114.43,41.65l-21.04-12.2-36.18,20.82-36.18-20.82-21.04,12.2v24.4l36.18,20.82v41.65l21.04,12.2,21.04-12.2v-41.65l36.18-20.82v-24.4Zm0,66.05v-24.4l-21.04,12.2v24.4l21.04-12.2Zm14.93,8.62l-36.18,20.82v24.4l57.22-33.03v-66.05l-21.04,12.2v41.65Zm-21.03-95.5l21.03,12.2v24.4l21.04-12.2v-24.4l-21.04-12.2-21.03,12.2Zm-72.15,125.16v24.4l21.04,12.2,21.04-12.2v-24.4l-21.04,12.2-21.04-12.2Zm-36.18-38.28l21.04,12.2v-24.4l-21.04-12.2v24.4Zm36.18-86.88l21.04,12.2,21.04-12.2-21.04-12.2-21.04,12.2Zm-51.12,12.2l21.04-12.2-21.04-12.2L0,53.85v24.4l21.04,12.2v-24.4Zm0,41.65L0,95.5v66.05l57.22,33.03v-24.4l-36.18-20.82v-41.65Z"/>
  </g>
</svg>