<svg class="ui-icon css-hrlb05" viewBox="0 0 40 40"><path fill-rule="evenodd" clip-rule="evenodd" d="M9.42201 9.16667L12.5172 30.8333H26.9734L30.0686 9.16667H9.42201ZM7.50032 5.83334C6.48607 5.83334 5.70697 6.73165 5.85041 7.7357L9.21741 31.3047C9.45201 32.9469 10.8584 34.1667 12.5172 34.1667H26.9734C28.6322 34.1667 30.0386 32.9469 30.2732 31.3047L33.6402 7.7357C33.7836 6.73165 33.0045 5.83334 31.9903 5.83334H7.50032Z"></path><path fill-rule="evenodd" clip-rule="evenodd" d="M18.0786 12.5V16.6667C18.0786 17.5871 18.8248 18.3333 19.7453 18.3333C20.6658 18.3333 21.412 17.5871 21.412 16.6667V12.5H24.7453V16.6667C24.7453 19.4281 22.5067 21.6667 19.7453 21.6667C16.9839 21.6667 14.7453 19.4281 14.7453 16.6667V12.5H18.0786Z"></path></svg>